<svg width="15" height="15" viewBox="0 0 15 15" fill="none" xmlns="http://www.w3.org/2000/svg">
<path d="M1 7.5C1 8.35359 1.16813 9.19883 1.49478 9.98744C1.82144 10.7761 2.30022 11.4926 2.90381 12.0962C3.50739 12.6998 4.22394 13.1786 5.01256 13.5052C5.80117 13.8319 6.64641 14 7.5 14C8.35359 14 9.19883 13.8319 9.98744 13.5052C10.7761 13.1786 11.4926 12.6998 12.0962 12.0962C12.6998 11.4926 13.1786 10.7761 13.5052 9.98744C13.8319 9.19883 14 8.35359 14 7.5C14 6.64641 13.8319 5.80117 13.5052 5.01256C13.1786 4.22394 12.6998 3.50739 12.0962 2.90381C11.4926 2.30023 10.7761 1.82144 9.98744 1.49478C9.19883 1.16813 8.35359 1 7.5 1C6.64641 1 5.80117 1.16813 5.01256 1.49478C4.22394 1.82144 3.50739 2.30023 2.90381 2.90381C2.30022 3.50739 1.82144 4.22394 1.49478 5.01256C1.16813 5.80117 1 6.64641 1 7.5Z" stroke="white" stroke-width="1.3" stroke-linecap="round" stroke-linejoin="round"/>
<path d="M9.5219 5.33339C9.39107 5.10644 9.20098 4.91934 8.97198 4.79212C8.74299 4.66491 8.48371 4.60236 8.2219 4.61117H6.77745C6.39436 4.61117 6.02696 4.76335 5.75608 5.03424C5.48519 5.30512 5.33301 5.67252 5.33301 6.05561C5.33301 6.4387 5.48519 6.8061 5.75608 7.07699C6.02696 7.34788 6.39436 7.50006 6.77745 7.50006H8.2219C8.60499 7.50006 8.97239 7.65224 9.24327 7.92313C9.51416 8.19401 9.66634 8.56141 9.66634 8.9445C9.66634 9.32759 9.51416 9.69499 9.24327 9.96588C8.97239 10.2368 8.60499 10.3889 8.2219 10.3889H6.77745C6.51564 10.3978 6.25636 10.3352 6.02737 10.208C5.79837 10.0808 5.60828 9.89368 5.47745 9.66673" stroke="white" stroke-width="1.3" stroke-linecap="round" stroke-linejoin="round"/>
<path d="M7.5 3.88892V11.1111" stroke="white" stroke-width="1.3" stroke-linecap="round" stroke-linejoin="round"/>
</svg>
