<svg width="20" height="20" viewBox="0 0 20 20" fill="none" xmlns="http://www.w3.org/2000/svg">
<path d="M17.75 6.31667H13.1C12.775 6.31667 12.5167 6.05834 12.5167 5.73334C12.5167 5.40834 12.775 5.15 13.1 5.15H17.75C18.075 5.15 18.3333 5.40834 18.3333 5.73334C18.3333 6.05834 18.075 6.31667 17.75 6.31667Z" fill="white"/>
<path d="M5.34999 6.31667H2.24999C1.92499 6.31667 1.66666 6.05834 1.66666 5.73334C1.66666 5.40834 1.92499 5.15 2.24999 5.15H5.34999C5.67499 5.15 5.93332 5.40834 5.93332 5.73334C5.93332 6.05834 5.66666 6.31667 5.34999 6.31667Z" fill="white"/>
<path d="M8.44999 9.025C10.2679 9.025 11.7417 7.55127 11.7417 5.73333C11.7417 3.9154 10.2679 2.44167 8.44999 2.44167C6.63205 2.44167 5.15833 3.9154 5.15833 5.73333C5.15833 7.55127 6.63205 9.025 8.44999 9.025Z" fill="white"/>
<path d="M17.75 14.8417H14.65C14.325 14.8417 14.0667 14.5833 14.0667 14.2583C14.0667 13.9333 14.325 13.675 14.65 13.675H17.75C18.075 13.675 18.3333 13.9333 18.3333 14.2583C18.3333 14.5833 18.075 14.8417 17.75 14.8417Z" fill="white"/>
<path d="M6.89999 14.8417H2.24999C1.92499 14.8417 1.66666 14.5833 1.66666 14.2583C1.66666 13.9333 1.92499 13.675 2.24999 13.675H6.89999C7.22499 13.675 7.48332 13.9333 7.48332 14.2583C7.48332 14.5833 7.21666 14.8417 6.89999 14.8417Z" fill="white"/>
<path d="M11.55 17.5583C13.3679 17.5583 14.8417 16.0846 14.8417 14.2667C14.8417 12.4487 13.3679 10.975 11.55 10.975C9.73206 10.975 8.25833 12.4487 8.25833 14.2667C8.25833 16.0846 9.73206 17.5583 11.55 17.5583Z" fill="white"/>
</svg>
