<svg width="15" height="15" viewBox="0 0 15 15" fill="none" xmlns="http://www.w3.org/2000/svg">
<path d="M1 7.5C1 8.35359 1.16813 9.19883 1.49478 9.98744C1.82144 10.7761 2.30022 11.4926 2.90381 12.0962C3.50739 12.6998 4.22394 13.1786 5.01256 13.5052C5.80117 13.8319 6.64641 14 7.5 14C8.35359 14 9.19883 13.8319 9.98744 13.5052C10.7761 13.1786 11.4926 12.6998 12.0962 12.0962C12.6998 11.4926 13.1786 10.7761 13.5052 9.98744C13.8319 9.19883 14 8.35359 14 7.5C14 5.77609 13.3152 4.12279 12.0962 2.90381C10.8772 1.68482 9.22391 1 7.5 1C5.77609 1 4.12279 1.68482 2.90381 2.90381C1.68482 4.12279 1 5.77609 1 7.5Z" stroke="white" stroke-width="1.3" stroke-linecap="round" stroke-linejoin="round"/>
<path d="M1.43359 5.33301H13.5669" stroke="white" stroke-width="1.3" stroke-linecap="round" stroke-linejoin="round"/>
<path d="M1.43359 9.66699H13.5669" stroke="white" stroke-width="1.3" stroke-linecap="round" stroke-linejoin="round"/>
<path d="M7.13908 1C5.92239 2.94972 5.27734 5.20179 5.27734 7.5C5.27734 9.79821 5.92239 12.0503 7.13908 14" stroke="white" stroke-width="1.3" stroke-linecap="round" stroke-linejoin="round"/>
<path d="M7.86133 1C9.07803 2.94972 9.72307 5.20179 9.72307 7.5C9.72307 9.79821 9.07803 12.0503 7.86133 14" stroke="white" stroke-width="1.3" stroke-linecap="round" stroke-linejoin="round"/>
</svg>
