<svg width="48" height="51" viewBox="0 0 48 51" fill="none" xmlns="http://www.w3.org/2000/svg">
<path d="M45.2513 30.1323L45.3504 30.1819C47.655 31.4704 48.547 34.3697 47.3328 36.699C43.1202 44.7525 34.6455 50.2536 24.907 50.1793C11.3276 50.0801 0.201484 39.0283 0.00324541 25.4489C-0.219774 11.4235 11.0799 0 25.0805 0C32.9853 0 40.0475 3.66742 44.6318 9.39157L35.6615 14.2484C32.787 11.4483 28.7975 9.76327 24.4362 9.93673C16.4323 10.2589 9.98954 16.8751 9.89042 24.9038C9.7913 33.3785 16.6305 40.2673 25.0557 40.2673C30.9038 40.2673 35.9836 36.9716 38.5112 32.1147C39.7997 29.6863 42.8477 28.7942 45.2513 30.1323Z" fill="#29D697"/>
<path d="M47.4073 13.6537C48.5224 15.8343 47.7294 18.5106 45.5736 19.7L40.0724 22.7479L26.4435 30.3058C24.3124 31.4952 21.6362 30.9005 20.199 28.9181L20.1494 28.8438C18.4396 26.4897 19.183 23.1444 21.7601 21.7567L35.6864 14.2236L44.6567 9.36679C45.6975 10.7049 46.6143 12.1421 47.4073 13.6537Z" fill="#1ABF83"/>
</svg>
