<svg width="24" height="24" viewBox="0 0 24 24" fill="none" xmlns="http://www.w3.org/2000/svg">
<path d="M18 18.86H17.24C16.44 18.86 15.68 19.17 15.12 19.73L13.41 21.42C12.63 22.19 11.36 22.19 10.58 21.42L8.87 19.73C8.31 19.17 7.54 18.86 6.75 18.86H6C4.34 18.86 3 17.53 3 15.89V4.97998C3 3.33998 4.34 2.01001 6 2.01001H18C19.66 2.01001 21 3.33998 21 4.97998V15.89C21 17.52 19.66 18.86 18 18.86Z" stroke="#3025CC" stroke-width="1.5" stroke-miterlimit="10" stroke-linecap="round" stroke-linejoin="round"/>
<path d="M12 10C13.2868 10 14.33 8.95681 14.33 7.66998C14.33 6.38316 13.2868 5.34003 12 5.34003C10.7132 5.34003 9.66998 6.38316 9.66998 7.66998C9.66998 8.95681 10.7132 10 12 10Z" stroke="#3025CC" stroke-width="1.5" stroke-linecap="round" stroke-linejoin="round"/>
<path d="M16 15.66C16 13.86 14.21 12.4 12 12.4C9.79 12.4 8 13.86 8 15.66" stroke="#3025CC" stroke-width="1.5" stroke-linecap="round" stroke-linejoin="round"/>
</svg>
