<svg width="24" height="24" viewBox="0 0 24 24" fill="none" xmlns="http://www.w3.org/2000/svg">
<path d="M10.49 2.23L5.5 4.11C4.35 4.54 3.41 5.9 3.41 7.12V14.55C3.41 15.73 4.19 17.28 5.14 17.99L9.44 21.2C10.85 22.26 13.17 22.26 14.58 21.2L18.88 17.99C19.83 17.28 20.61 15.73 20.61 14.55V7.12C20.61 5.89 19.67 4.53 18.52 4.1L13.53 2.23C12.68 1.92 11.32 1.92 10.49 2.23Z" stroke="#292D32" stroke-width="1.5" stroke-linecap="round" stroke-linejoin="round"/>
<path d="M12 12.5C13.1046 12.5 14 11.6046 14 10.5C14 9.39543 13.1046 8.5 12 8.5C10.8954 8.5 10 9.39543 10 10.5C10 11.6046 10.8954 12.5 12 12.5Z" stroke="#292D32" stroke-width="1.5" stroke-miterlimit="10" stroke-linecap="round" stroke-linejoin="round"/>
<path d="M12 12.5V15.5" stroke="#292D32" stroke-width="1.5" stroke-miterlimit="10" stroke-linecap="round" stroke-linejoin="round"/>
</svg>
