<svg width="24" height="24" viewBox="0 0 24 24" fill="none" xmlns="http://www.w3.org/2000/svg">
<path d="M16 2H8C4 2 2 4 2 8V21C2 21.55 2.45 22 3 22H16C20 22 22 20 22 16V8C22 4 20 2 16 2Z" stroke="#50A253" stroke-width="1.5" stroke-linecap="round" stroke-linejoin="round"/>
<path d="M12.91 7.84L7.72 13.03C7.52 13.23 7.33001 13.62 7.29001 13.9L7.01001 15.88C6.91001 16.6 7.41001 17.1 8.13001 17L10.11 16.72C10.39 16.68 10.78 16.49 10.98 16.29L16.17 11.1C17.06 10.21 17.49 9.17 16.17 7.85C14.85 6.52 13.81 6.94 12.91 7.84Z" stroke="#50A253" stroke-width="1.5" stroke-miterlimit="10" stroke-linecap="round" stroke-linejoin="round"/>
<path d="M12.17 8.58C12.61 10.15 13.84 11.39 15.42 11.83" stroke="#50A253" stroke-width="1.5" stroke-miterlimit="10" stroke-linecap="round" stroke-linejoin="round"/>
</svg>
